# xmcd
#
# Track frame offsets:
# 150
# 12398
# 24030
# 33236
# 42774
# 54427
# 65485
# 76644
# 88391
# 100868
# 113079
# 122657
# 132243
# 143630
# 155661
# 164935
# 175399
# 184997
# 194797
# 204479
# 213107
# 223176
# 232879
# 242422
# 250895
# 261657
# 271338
# 280871
# 290150
# 300008
# 309410
#
# Disc length: 4400 seconds
#
#
# Revision: 0
# Processed by: cddbd v1.5.2PL0 Copyright (c) Steve Scherf et al.
# Submitted via: FreeRIP 2.942 
#
DISCID=c1112e1f
DTITLE=Jacinto Silva - Jacinto Silva e Seus Grandes Sucessos
DYEAR=1900
DGENRE=Blues
TTITLE0=Coco mastigadinho
TTITLE1=Puxa o fole Zé
TTITLE2=Coco machucado
TTITLE3=Liga, vai, liga
TTITLE4=Saudade de Alagoas
TTITLE5=Vida de carreiro
TTITLE6=Dor da saudade
TTITLE7=Coco na Paraíba
TTITLE8=Na roça é assim
TTITLE9=Ela sabia
TTITLE10=Adeus Corina
TTITLE11=Pra rapaziada
TTITLE12=No pinicado
TTITLE13=Flor da gameleira
TTITLE14=Amor de capinheiro
TTITLE15=O cantador
TTITLE16=Girassol
TTITLE17=Rabo de saia
TTITLE18=Coco na ciranda
TTITLE19=Coco do M
TTITLE20=O pau vai cantar
TTITLE21=Coco sincopado
TTITLE22=Só era eu
TTITLE23=Rosa branca
TTITLE24=Oito baixos no pagode
TTITLE25=Nêga da muléstia
TTITLE26=Forro do Zé
TTITLE27=Coco de Pernambuco
TTITLE28=Amei, amei
TTITLE29=O negócio é andar só
TTITLE30=Pisa maneiro
EXTD=
EXTT0=
EXTT1=
EXTT2=
EXTT3=
EXTT4=
EXTT5=
EXTT6=
EXTT7=
EXTT8=
EXTT9=
EXTT10=
EXTT11=
EXTT12=
EXTT13=
EXTT14=
EXTT15=
EXTT16=
EXTT17=
EXTT18=
EXTT19=
EXTT20=
EXTT21=
EXTT22=
EXTT23=
EXTT24=
EXTT25=
EXTT26=
EXTT27=
EXTT28=
EXTT29=
EXTT30=
PLAYORDER=
